<svg height='100px' width='100px'  fill="#FFFFFF" xmlns="http://www.w3.org/2000/svg" xmlns:xlink="http://www.w3.org/1999/xlink" version="1.1" x="0px" y="0px" viewBox="0 0 512 512" style="enable-background:new 0 0 512 512;" xml:space="preserve"><g><path d="M444.319,64.002C386.65,6.986,293.373,7.545,236.356,65.193c-52.01,52.626-55.949,134.824-12.452,192.125l-39.28,39.742   l-0.477-0.472c-2.54-2.511-5.711-3.759-9.492-3.874c-3.58,0.014-6.938,1.435-9.449,3.975L34.304,428.961   c-6.651,6.715-10.281,15.612-10.224,25.068c0.05,9.442,3.781,18.295,10.475,24.91l1.263,1.263c0.007,0,0.014,0.014,0.022,0.014   c6.873,6.802,15.849,10.188,24.831,10.188c9.105,0,18.209-3.487,25.104-10.461l130.944-132.314   c5.187-5.252,5.144-13.761-0.108-18.955l-1.117-1.104l39.465-39.917c25.594,18.498,55.742,27.891,85.974,27.891   c37.932,0,75.864-14.55,104.584-43.593C502.52,214.296,501.982,120.997,444.319,64.002z M208.361,339.364L77.424,471.678   c-9.133,9.241-24.064,9.327-33.312,0.187l-1.27-1.263c-4.484-4.434-6.974-10.346-7.01-16.645   c-0.036-6.299,2.389-12.24,6.823-16.731l130.901-132.271l2.325-0.014l32.465,32.085   C208.992,337.671,208.999,338.718,208.361,339.364z M207.13,319.304l-14.142-13.977l38.441-38.893   c2.016,2.254,3.953,4.554,6.133,6.708c2.595,2.567,5.338,4.884,8.071,7.218L207.13,319.304z M437.152,263.686   c-52.439,53.063-138.283,53.523-191.325,1.105c-53.056-52.446-53.551-138.283-1.105-191.333   c26.417-26.733,61.314-40.12,96.219-40.12c34.388,0,68.79,13,95.114,39.016C489.11,124.8,489.598,210.637,437.152,263.686z"></path><path d="M420.837,87.75c-21.588-21.352-50.272-32.774-80.557-32.831c-30.356,0.172-58.825,12.168-80.169,33.749   c-21.337,21.596-32.996,50.194-32.824,80.557s12.161,58.832,33.749,80.169c21.431,21.194,49.777,32.831,79.882,32.831   c0.222,0,0.452,0,0.674,0c30.356-0.172,58.825-12.168,80.169-33.749c21.337-21.596,32.996-50.194,32.824-80.557   C454.414,137.556,442.425,109.088,420.837,87.75z M413.397,240.211c-19.128,19.357-44.655,30.105-71.875,30.262   c-27.055-0.23-52.855-10.303-72.22-29.43c-19.357-19.142-30.105-44.669-30.263-71.89s10.296-52.863,29.437-72.22   c19.128-19.357,44.655-30.105,71.875-30.263c0.201,0,0.395,0,0.596,0c26.991,0,52.411,10.446,71.624,29.43   c19.357,19.142,30.105,44.669,30.263,71.89S432.539,220.854,413.397,240.211z"></path><path d="M318.921,96.417c-20.62,5.926-38.061,20.232-47.848,39.231c-1.485,2.899-0.352,6.443,2.533,7.921   c0.861,0.445,1.779,0.66,2.683,0.66c2.131,0,4.19-1.162,5.23-3.186c8.315-16.143,23.124-28.297,40.644-33.319   c3.121-0.904,4.922-4.161,4.025-7.275C325.3,97.336,322.049,95.499,318.921,96.417z"></path><path d="M126.204,366.283l-62.598,62.591c-2.296,2.296-2.296,6.027,0,8.323c1.148,1.148,2.647,1.722,4.154,1.722   s3.006-0.574,4.154-1.722l62.598-62.591c2.296-2.296,2.296-6.027,0-8.323C132.216,363.987,128.5,363.987,126.204,366.283z"></path></g></svg>