<svg height='100px' width='100px'  fill="#FFFFFF" xmlns="http://www.w3.org/2000/svg" xmlns:xlink="http://www.w3.org/1999/xlink" version="1.1" x="0px" y="0px" viewBox="0 0 60 60" enable-background="new 0 0 60 60" xml:space="preserve"><g><g><g><path d="M6,19c-0.5522461,0-1-0.4477539-1-1V6c0-0.5522461,0.4477539-1,1-1s1,0.4477539,1,1v12C7,18.5522461,6.5522461,19,6,19z"></path></g><g><path d="M28.53125,19c-0.5522461,0-1-0.4477539-1-1V6c0-0.5522461,0.4477539-1,1-1s1,0.4477539,1,1v12     C29.53125,18.5522461,29.0834961,19,28.53125,19z"></path></g><g><path d="M17.265625,19c-2.1708984,0-3.9375-1.7666016-3.9375-3.9375v-6.125c0-2.1708984,1.7666016-3.9375,3.9375-3.9375     s3.9375,1.7666016,3.9375,3.9375v6.125C21.203125,17.2333984,19.4365234,19,17.265625,19z M17.265625,7     c-1.0683594,0-1.9375,0.8691406-1.9375,1.9375v6.125c0,1.0683594,0.8691406,1.9375,1.9375,1.9375s1.9375-0.8691406,1.9375-1.9375     v-6.125C19.203125,7.8691406,18.3339844,7,17.265625,7z"></path></g><g><path d="M51.0625,19c-2.1708984,0-3.9375-1.7666016-3.9375-3.9375v-6.125C47.125,6.7666016,48.8916016,5,51.0625,5     S55,6.7666016,55,8.9375v6.125C55,17.2333984,53.2333984,19,51.0625,19z M51.0625,7c-1.0683594,0-1.9375,0.8691406-1.9375,1.9375     v6.125c0,1.0683594,0.8691406,1.9375,1.9375,1.9375S53,16.1308594,53,15.0625v-6.125C53,7.8691406,52.1308594,7,51.0625,7z"></path></g><g><path d="M39.796875,19c-2.1708984,0-3.9375-1.7666016-3.9375-3.9375v-6.125c0-2.1708984,1.7666016-3.9375,3.9375-3.9375     s3.9375,1.7666016,3.9375,3.9375v6.125C43.734375,17.2333984,41.9677734,19,39.796875,19z M39.796875,7     c-1.0683594,0-1.9375,0.8691406-1.9375,1.9375v6.125c0,1.0683594,0.8691406,1.9375,1.9375,1.9375s1.9375-0.8691406,1.9375-1.9375     v-6.125C41.734375,7.8691406,40.8652344,7,39.796875,7z"></path></g></g><g><g><path d="M54,37c-0.5522461,0-1-0.4477539-1-1V24c0-0.5522461,0.4477539-1,1-1s1,0.4477539,1,1v12     C55,36.5522461,54.5522461,37,54,37z"></path></g><g><path d="M31.46875,37c-0.5522461,0-1-0.4477539-1-1V24c0-0.5522461,0.4477539-1,1-1s1,0.4477539,1,1v12     C32.46875,36.5522461,32.0209961,37,31.46875,37z"></path></g><g><path d="M42.734375,37c-2.1708984,0-3.9375-1.7666016-3.9375-3.9375v-6.125c0-2.1708984,1.7666016-3.9375,3.9375-3.9375     s3.9375,1.7666016,3.9375,3.9375v6.125C46.671875,35.2333984,44.9052734,37,42.734375,37z M42.734375,25     c-1.0683594,0-1.9375,0.8691406-1.9375,1.9375v6.125c0,1.0683594,0.8691406,1.9375,1.9375,1.9375s1.9375-0.8691406,1.9375-1.9375     v-6.125C44.671875,25.8691406,43.8027344,25,42.734375,25z"></path></g><g><path d="M8.9375,37C6.7666016,37,5,35.2333984,5,33.0625v-6.125C5,24.7666016,6.7666016,23,8.9375,23     s3.9375,1.7666016,3.9375,3.9375v6.125C12.875,35.2333984,11.1083984,37,8.9375,37z M8.9375,25     C7.8691406,25,7,25.8691406,7,26.9375v6.125C7,34.1308594,7.8691406,35,8.9375,35s1.9375-0.8691406,1.9375-1.9375v-6.125     C10.875,25.8691406,10.0058594,25,8.9375,25z"></path></g><g><path d="M20.203125,37c-2.1708984,0-3.9375-1.7666016-3.9375-3.9375v-6.125c0-2.1708984,1.7666016-3.9375,3.9375-3.9375     s3.9375,1.7666016,3.9375,3.9375v6.125C24.140625,35.2333984,22.3740234,37,20.203125,37z M20.203125,25     c-1.0683594,0-1.9375,0.8691406-1.9375,1.9375v6.125c0,1.0683594,0.8691406,1.9375,1.9375,1.9375s1.9375-0.8691406,1.9375-1.9375     v-6.125C22.140625,25.8691406,21.2714844,25,20.203125,25z"></path></g></g><g><g><path d="M6,55c-0.5522461,0-1-0.4477539-1-1V42c0-0.5522461,0.4477539-1,1-1s1,0.4477539,1,1v12C7,54.5522461,6.5522461,55,6,55z     "></path></g><g><path d="M28.53125,55c-0.5522461,0-1-0.4477539-1-1V42c0-0.5522461,0.4477539-1,1-1s1,0.4477539,1,1v12     C29.53125,54.5522461,29.0834961,55,28.53125,55z"></path></g><g><path d="M17.265625,55c-2.1708984,0-3.9375-1.7666016-3.9375-3.9375v-6.125c0-2.1708984,1.7666016-3.9375,3.9375-3.9375     s3.9375,1.7666016,3.9375,3.9375v6.125C21.203125,53.2333984,19.4365234,55,17.265625,55z M17.265625,43     c-1.0683594,0-1.9375,0.8691406-1.9375,1.9375v6.125c0,1.0683594,0.8691406,1.9375,1.9375,1.9375s1.9375-0.8691406,1.9375-1.9375     v-6.125C19.203125,43.8691406,18.3339844,43,17.265625,43z"></path></g><g><path d="M51.0625,55c-2.1708984,0-3.9375-1.7666016-3.9375-3.9375v-6.125c0-2.1708984,1.7666016-3.9375,3.9375-3.9375     S55,42.7666016,55,44.9375v6.125C55,53.2333984,53.2333984,55,51.0625,55z M51.0625,43     c-1.0683594,0-1.9375,0.8691406-1.9375,1.9375v6.125c0,1.0683594,0.8691406,1.9375,1.9375,1.9375S53,52.1308594,53,51.0625     v-6.125C53,43.8691406,52.1308594,43,51.0625,43z"></path></g><g><path d="M39.796875,55c-2.1708984,0-3.9375-1.7666016-3.9375-3.9375v-6.125c0-2.1708984,1.7666016-3.9375,3.9375-3.9375     s3.9375,1.7666016,3.9375,3.9375v6.125C43.734375,53.2333984,41.9677734,55,39.796875,55z M39.796875,43     c-1.0683594,0-1.9375,0.8691406-1.9375,1.9375v6.125c0,1.0683594,0.8691406,1.9375,1.9375,1.9375s1.9375-0.8691406,1.9375-1.9375     v-6.125C41.734375,43.8691406,40.8652344,43,39.796875,43z"></path></g></g></g></svg>