<svg xmlns="http://www.w3.org/2000/svg" xmlns:xlink="http://www.w3.org/1999/xlink" width="843" height="467.49" viewBox="0 0 843 467.49"><defs><style>.a{fill:#fff;}.b,.c{stroke:none;}.d{filter:url(#a);}</style><filter id="a" x="0" y="0" width="843" height="467.49" filterUnits="userSpaceOnUse"><feOffset dx="6" dy="6" input="SourceAlpha"/><feGaussianBlur result="b"/><feFlood flood-color="#ff006c"/><feComposite operator="in" in2="b"/><feComposite in="SourceGraphic"/></filter></defs><g class="d" transform="matrix(1, 0, 0, 1, 0, 0)"><g class="a"><path class="b" d="M 105.778205871582 459.6836853027344 L 132.681884765625 378.7375793457031 L 133.1190032958984 377.4221496582031 L 131.7328948974609 377.4221496582031 L 18.86688804626465 377.4221496582031 C 9.015000343322754 377.4221496582031 1 367.3799133300781 1 355.0364685058594 L 1 154.1979217529297 L 1 105.8806915283203 L 1 65.32313537597656 L 1 23.38569259643555 C 1 11.0422477722168 9.015000343322754 1.000025629997253 18.86688804626465 1.000025629997253 L 818.1332397460938 1.000025629997253 C 827.9849853515625 1.000025629997253 836 11.0422477722168 836 23.38569259643555 L 836 355.0364685058594 C 836 367.3799133300781 827.9849853515625 377.4221496582031 818.1332397460938 377.4221496582031 L 295.9024353027344 377.4221496582031 L 295.6952209472656 377.4221496582031 L 295.5050048828125 377.5044555664062 L 105.778205871582 459.6836853027344 Z"/><path class="c" d="M 18.86688232421875 2.000030517578125 C 9.56646728515625 2.000030517578125 2 11.59356689453125 2 23.38558959960938 L 2 65.32315063476562 L 2 105.8807067871094 L 2 154.1979064941406 L 2 355.0364685058594 C 2 366.8285827636719 9.56646728515625 376.422119140625 18.86688232421875 376.422119140625 L 131.73291015625 376.422119140625 L 134.5052490234375 376.422119140625 L 133.6307983398438 379.0529174804688 L 107.4321899414062 457.8775634765625 L 295.1075439453125 376.5869140625 L 295.4879150390625 376.422119140625 L 295.9024658203125 376.422119140625 L 818.1331176757812 376.422119140625 C 827.4335327148438 376.422119140625 835 366.8285827636719 835 355.0364685058594 L 835 23.38558959960938 C 835 11.59356689453125 827.4335327148438 2.000030517578125 818.1331176757812 2.000030517578125 L 18.86688232421875 2.000030517578125 M 18.86688232421875 3.0517578125e-05 L 818.1331176757812 3.0517578125e-05 C 828.5531005859375 3.0517578125e-05 837 10.47012329101562 837 23.38558959960938 L 837 355.0364685058594 C 837 367.9520263671875 828.5531005859375 378.422119140625 818.1331176757812 378.422119140625 L 295.9024658203125 378.422119140625 L 104.1240234375 461.4900207519531 L 131.73291015625 378.422119140625 L 18.86688232421875 378.422119140625 C 8.447021484375 378.422119140625 0 367.9520263671875 0 355.0364685058594 L 0 154.1979064941406 L 0 105.8807067871094 L 0 65.32315063476562 L 0 23.38558959960938 C 0 10.47012329101562 8.447021484375 3.0517578125e-05 18.86688232421875 3.0517578125e-05 Z"/></g></g></svg>
