<svg xmlns="http://www.w3.org/2000/svg" xmlns:xlink="http://www.w3.org/1999/xlink" width="3194" height="945.325" viewBox="0 0 3194 945.325"><defs><style>.a,.b,.c,.g,.n,.o,.p,.s,.t,.u,.v,.w{fill:none;}.a{stroke:rgba(193,193,193,0.36);}.b{stroke:#c1c1c1;}.c{stroke:#707070;}.d{fill:rgba(255,43,125,0.6);}.e{fill:rgba(13,181,162,0.56);}.f{fill:rgba(244,207,5,0.46);}.h{fill:#ff006c;}.i{fill:#11766a;}.j{fill:#deb507;}.k{fill:url(#a);}.l{opacity:0.239;}.m{fill:url(#b);}.n{stroke:#deb507;}.n,.o,.p{stroke-linecap:round;stroke-width:3px;stroke-dasharray:3 10;}.o{stroke:#11766a;}.p{stroke:#ff006c;stroke-linejoin:round;}.q{opacity:0.767;}.r{fill:#fff;}.s{stroke:#d0d0d0;}.s,.t{stroke-width:4px;}.t{stroke:#f8f8f8;}.u{stroke:rgba(13,181,162,0.56);}.u,.v,.w{stroke-linecap:square;stroke-width:12px;}.v{stroke:rgba(244,207,5,0.46);}.w{stroke:rgba(255,43,125,0.6);}.x,.y,.z{stroke:none;}.y{fill:#d0d0d0;}.aa{filter:url(#f);}.ab{filter:url(#d);}</style><radialGradient id="a" cx="0.514" cy="0.524" r="0.416" gradientTransform="matrix(1, 0, 0, 0.775, 0, 0.118)" gradientUnits="objectBoundingBox"><stop offset="0" stop-color="#fff" stop-opacity="0"/><stop offset="0.431" stop-color="#fff" stop-opacity="0"/><stop offset="1" stop-color="#fff"/></radialGradient><radialGradient id="b" cx="0.486" cy="0.476" r="0.416" gradientTransform="matrix(-1, 0, 0, -0.775, 0.971, 0.844)" xlink:href="#a"/><filter id="d" x="1350.798" y="0" width="501.856" height="257.608" filterUnits="userSpaceOnUse"><feOffset dx="3" dy="3" input="SourceAlpha"/><feGaussianBlur result="e"/><feFlood flood-color="#676767" flood-opacity="0.353"/><feComposite operator="in" in2="e"/><feComposite in="SourceGraphic"/></filter><filter id="f" x="744.798" y="131" width="501.856" height="257.608" filterUnits="userSpaceOnUse"><feOffset dx="3" dy="3" input="SourceAlpha"/><feGaussianBlur result="g"/><feFlood flood-color="#6e6e6e" flood-opacity="0.486"/><feComposite operator="in" in2="g"/><feComposite in="SourceGraphic"/></filter></defs><g transform="translate(606 -154.675)"><g transform="translate(-125.202)"><g transform="translate(3 -3)"><g transform="translate(175.112 403.556)"><path class="a" d="M239,758.5l49.33-29.635L342.14,758.5l9.656-61.034,50.123,52.321,83.608-37.411L464.807,637.2l-62.889-18.073,13.267-46.039" transform="translate(-239 -435.659)"/><path class="b" d="M266,761.129l13.518-48.185L342,681.867l113.868-60.817" transform="translate(-229.963 -419.606)"/><path class="b" d="M341.056,570,378.2,619.5l82,198.729-82-67.666-60.6,9.469-8.671,40.783" transform="translate(-215.593 -436.693)"/><path class="b" d="M940.058,701.129l7.051-84.617-43.958,30.843-38.725,61.663L808.409,752.08l-43.091-69.626-83.95,79.162,83.95,52.844L706.4,635.19,661.267,672.7,601.948,789.774,586.211,869.91,567.36,709.019l-62.7,63.126-82.4-63.126v105.44L573.078,626.787l-85.205,8.4L509.2,581.349" transform="translate(-177.659 -432.895)"/><path class="b" d="M567.563,676.666l114.012,53.194-79.822,29.255-96.979-18.332-82.839,41.375" transform="translate(-177.768 -400.99)"/><path class="b" d="M484,726l81.706,93.739" transform="translate(-156.994 -384.477)"/><path class="b" d="M582.946,875.2l30.771-55.251,68.029,42.886,29.681-107.147,76.318,69.5,48.508,53.5,11.109-45.623-59.616,45.623L741.2,838.922" transform="translate(-123.875 -374.541)"/><path class="b" d="M657.939,845.29l59.315-21.245,46.255-16.009" transform="translate(-98.773 -357.018)"/><path class="b" d="M694.233,871.568h29.638l27.32-23.915" transform="translate(-86.625 -343.758)"/><path class="b" d="M706.179,842.671l13.134,29.776" transform="translate(-82.626 -345.425)"/><path class="b" d="M805.2,856.073l-32.327-8.964" transform="translate(-60.301 -343.94)"/><path class="b" d="M805.387,836.106l-19.123-45.611-42.29-32.026-35.629-10.554" transform="translate(-81.901 -377.142)"/><path class="b" d="M679.367,771.338l42.517-62.346" transform="translate(-91.601 -390.17)"/><path class="b" d="M809.693,832.729l-19.9-66.891L853.8,723.8l59.058,55.954L853.8,799.831" transform="translate(-54.638 -385.212)"/><path class="b" d="M838.08,781.707l27.842-74.63,93.671,59.268L936.834,647.632l29.441-55.4L950.3,551.483" transform="translate(-38.477 -442.891)"/><path class="b" d="M781.051,645.837l102.09,47.547,72.893-58.4L915.79,590.231" transform="translate(-57.565 -429.922)"/><path class="b" d="M772.876,587.736l56.748,31.906,58.664-45.675" transform="translate(-60.301 -435.366)"/><path class="b" d="M1044.772,644l-61.1,22.949L858.2,676.9" transform="translate(-31.742 -411.924)"/><path class="b" d="M1064.078,698.737,952.115,661.693l27.727,72.863-23.531,43.909" transform="translate(-0.307 -406.002)"/><path class="b" d="M958.236,729.516,989.367,661.5,838.034,745.049" transform="translate(-38.492 -406.066)"/><path class="b" d="M558.851,694.2l17.361-45.9-12.726-69.023-43.892-48.741,25.557-33.715,24.839-24.27" transform="translate(-145.08 -469.311)"/><path class="b" d="M541.548,470.124l-2.972,26.168,38.185,4.794" transform="translate(-138.726 -470.124)"/><path class="b" d="M552.881,568.173l25.438-15.165,49.62,25.792,13.076-31.223-7.968-29.609" transform="translate(-133.938 -454.11)"/><path class="b" d="M639.077,563.13l-20.229-22.9" transform="translate(-111.858 -446.657)"/><path class="b" d="M625.042,563.544l10.805,50.332L562.6,618.442" transform="translate(-130.685 -438.854)"/><path class="b" d="M635.458,648.747,690.413,583.2l-10.144-43.268-44.811,4.228" transform="translate(-106.298 -446.759)"/><path class="c" d="M745,571.235l-2.919,49.8-65.245-49.8L679.7,685.071" transform="translate(-92.447 -436.28)"/></g><g transform="translate(171.108 399.387)"><circle class="d" cx="38.5" cy="38.5" r="38.5" transform="translate(210.892 241.613)"/><circle class="d" cx="38.5" cy="38.5" r="38.5" transform="translate(210.892 241.613)"/><circle class="e" cx="38.5" cy="38.5" r="38.5" transform="translate(468.892 293.613)"/><circle class="f" cx="38.5" cy="38.5" r="38.5" transform="translate(763.892 305.613)"/><circle class="d" cx="29.5" cy="29.5" r="29.5" transform="translate(219.892 250.613)"/><circle class="e" cx="29.5" cy="29.5" r="29.5" transform="translate(477.892 302.613)"/><circle class="f" cx="29.5" cy="29.5" r="29.5" transform="translate(772.892 314.613)"/><g class="g" transform="translate(750.112 303.276)"><path class="x" d="M0,41.081Z"/><path class="y" d="M 0 49.38023376464844 L 0 32.78219604492188 L 0 49.38023376464844 Z"/></g><circle class="h" cx="20" cy="20" r="20" transform="translate(229.892 260.613)"/><circle class="i" cx="20" cy="20" r="20" transform="translate(486.892 312.613)"/><circle class="j" cx="20" cy="20" r="20" transform="translate(781.892 324.613)"/><ellipse class="h" cx="9.5" cy="9" rx="9.5" ry="9" transform="translate(239.892 376.613)"/><ellipse class="h" cx="9.5" cy="9" rx="9.5" ry="9" transform="translate(389.892 188.613)"/><ellipse class="h" cx="9" cy="9.5" rx="9" ry="9.5" transform="translate(699.892 409.613)"/><circle class="h" cx="9" cy="9" r="9" transform="translate(157.892 308.613)"/><path class="j" d="M9.343,0A9.343,9.343,0,1,1,0,9.343,9.343,9.343,0,0,1,9.343,0Z" transform="translate(822.187 258.935)"/><ellipse class="j" cx="9" cy="9.5" rx="9" ry="9.5" transform="translate(412.892 105.613)"/><ellipse class="j" cx="9.5" cy="9" rx="9.5" ry="9" transform="translate(892.892 200.613)"/><ellipse class="j" cx="9" cy="9.5" rx="9" ry="9.5" transform="translate(915.892 318.613)"/><ellipse class="j" cx="9.5" cy="9" rx="9.5" ry="9" transform="translate(853.892 388.613)"/><circle class="j" cx="9.5" cy="9.5" r="9.5" transform="translate(720.892 209.613)"/><ellipse class="i" cx="9.5" cy="9" rx="9.5" ry="9" transform="translate(581.892 244.613)"/><circle class="i" cx="9.5" cy="9.5" r="9.5" transform="translate(522.892 197.613)"/><circle class="i" cx="9.5" cy="9.5" r="9.5" transform="translate(625.892 314.613)"/><ellipse class="i" cx="9.5" cy="9" rx="9.5" ry="9" transform="translate(581.892 376.613)"/><ellipse class="i" cx="9" cy="9.5" rx="9" ry="9.5" transform="translate(552.892 481.613)"/><circle class="i" cx="9.5" cy="9.5" r="9.5" transform="translate(658.892 445.613)"/><ellipse class="i" cx="9" cy="9.5" rx="9" ry="9.5" transform="translate(384.892 270.613)"/><ellipse class="i" cx="9.5" cy="9" rx="9.5" ry="9" transform="translate(402.892 431.613)"/><ellipse class="i" cx="9" cy="9.5" rx="9" ry="9.5" transform="translate(321.892 333.613)"/><ellipse class="j" cx="9.5" cy="9" rx="9.5" ry="9" transform="translate(680.892 268.613)"/><circle class="h" cx="9.5" cy="9.5" r="9.5" transform="translate(106.892 257.613)"/><ellipse class="h" cx="9.5" cy="9" rx="9.5" ry="9" transform="translate(219.892 196.613)"/><ellipse class="h" cx="7" cy="6.5" rx="7" ry="6.5" transform="translate(159.892 180.613)"/><circle class="j" cx="6.5" cy="6.5" r="6.5" transform="translate(948.892 252.613)"/><circle class="j" cx="6.5" cy="6.5" r="6.5" transform="translate(795.892 412.613)"/><ellipse class="i" cx="7" cy="6.5" rx="7" ry="6.5" transform="translate(646.892 181.613)"/><circle class="i" cx="6.5" cy="6.5" r="6.5" transform="translate(480.892 237.613)"/><ellipse class="i" cx="6.5" cy="7" rx="6.5" ry="7" transform="translate(421.892 354.613)"/><ellipse class="i" cx="7" cy="6.5" rx="7" ry="6.5" transform="translate(486.892 443.613)"/><ellipse class="i" cx="7" cy="6.5" rx="7" ry="6.5" transform="translate(614.892 463.613)"/><circle class="i" cx="6.5" cy="6.5" r="6.5" transform="translate(581.892 133.613)"/><ellipse class="j" cx="6.5" cy="7" rx="6.5" ry="7" transform="translate(732.892 378.613)"/><ellipse class="j" cx="7" cy="6.5" rx="7" ry="6.5" transform="translate(765.892 181.613)"/><ellipse class="j" cx="6.5" cy="7" rx="6.5" ry="7" transform="translate(501.892 170.613)"/><ellipse class="j" cx="7" cy="6.5" rx="7" ry="6.5" transform="translate(370.892 58.613)"/><circle class="j" cx="6.5" cy="6.5" r="6.5" transform="translate(441.892 97.613)"/><circle class="j" cx="6.5" cy="6.5" r="6.5" transform="translate(429.892 177.613)"/><ellipse class="j" cx="7" cy="6.5" rx="7" ry="6.5" transform="translate(1008.892 229.613)"/><ellipse class="j" cx="6.5" cy="7" rx="6.5" ry="7" transform="translate(1062.892 286.613)"/><circle class="j" cx="6.5" cy="6.5" r="6.5" transform="translate(975.892 325.613)"/><ellipse class="j" cx="6.5" cy="7" rx="6.5" ry="7" transform="translate(924.892 146.613)"/><ellipse class="h" cx="7" cy="6.5" rx="7" ry="6.5" transform="translate(99.892 320.613)"/><ellipse class="h" cx="6.5" cy="7" rx="6.5" ry="7" transform="translate(664.892 501.613)"/><circle class="h" cx="7" cy="7" r="7" transform="translate(658.892 378.613)"/><circle class="h" cx="6.5" cy="6.5" r="6.5" transform="translate(720.892 456.613)"/><ellipse class="h" cx="7" cy="6.5" rx="7" ry="6.5" transform="translate(709.892 500.613)"/><circle class="h" cx="7" cy="7" r="7" transform="translate(634.892 525.613)"/><ellipse class="h" cx="6.5" cy="7" rx="6.5" ry="7" transform="translate(46.892 290.613)"/><circle class="h" cx="4" cy="4" r="4" transform="translate(175.892 137.613)"/><circle class="h" cx="4" cy="4" r="4" transform="translate(309.892 202.613)"/><circle class="h" cx="4" cy="4" r="4" transform="translate(330.892 149.613)"/><circle class="h" cx="4" cy="4" r="4" transform="translate(606.892 527.613)"/><circle class="h" cx="4" cy="4" r="4" transform="translate(624.892 497.613)"/><circle class="h" cx="4" cy="4" r="4" transform="translate(626.892 370.613)"/><circle class="h" cx="4" cy="4" r="4" transform="translate(125.892 133.613)"/><circle class="h" cx="4" cy="4" r="4" transform="translate(93.892 364.613)"/><circle class="h" cx="4" cy="4" r="4" transform="translate(35.892 341.613)"/><circle class="i" cx="4" cy="4" r="4" transform="translate(460.892 500.613)"/><ellipse class="j" cx="4" cy="4.5" rx="4" ry="4.5" transform="translate(911.892 107.613)"/><circle class="j" cx="4" cy="4" r="4" transform="translate(861.892 160.613)"/><circle class="j" cx="4" cy="4" r="4" transform="translate(755.892 445.613)"/><circle class="j" cx="4" cy="4" r="4" transform="translate(493.892 124.613)"/><circle class="j" cx="4" cy="4" r="4" transform="translate(506.892 93.613)"/><circle class="j" cx="4" cy="4" r="4" transform="translate(498.892 65.613)"/><circle class="j" cx="4" cy="4" r="4" transform="translate(413.892 224.613)"/><circle class="j" cx="4" cy="4" r="4" transform="translate(400.892 26.613)"/><circle class="j" cx="4" cy="4" r="4" transform="translate(402.892 -0.387)"/><circle class="j" cx="4" cy="4" r="4" transform="translate(425.892 3.613)"/><circle class="j" cx="4" cy="4" r="4" transform="translate(436.892 30.613)"/><circle class="j" cx="4" cy="4" r="4" transform="translate(526.892 116.613)"/><circle class="j" cx="4" cy="4" r="4" transform="translate(861.892 160.613)"/><ellipse class="j" cx="4" cy="4.5" rx="4" ry="4.5" transform="translate(911.892 107.613)"/><circle class="j" cx="4" cy="4" r="4" transform="translate(955.892 373.613)"/><circle class="j" cx="4" cy="4" r="4" transform="translate(827.892 138.613)"/><circle class="j" cx="4" cy="4" r="4" transform="translate(712.892 153.613)"/><circle class="i" cx="4" cy="4" r="4" transform="translate(652.892 136.613)"/><circle class="i" cx="4" cy="4" r="4" transform="translate(528.892 97.613)"/><circle class="i" cx="4" cy="4" r="4" transform="translate(573.892 93.613)"/><circle class="j" cx="4" cy="4" r="4" transform="translate(761.892 268.613)"/><circle class="h" cx="4" cy="4" r="4" transform="translate(-0.108 322.613)"/></g></g><ellipse class="k" cx="921.5" cy="394" rx="921.5" ry="394" transform="translate(-209 292)"/></g><g class="l" transform="translate(-517 339)"><g transform="translate(1778 97)"><g transform="translate(8.117 7.633)"><path class="a" d="M485.527,573.089,436.2,602.724l-53.81-29.635-9.656,61.034L322.608,581.8,239,619.214l20.719,75.17,62.889,18.073L309.341,758.5" transform="translate(578.244 -368.116)"/><path class="b" d="M455.869,621.049l-13.518,48.185-62.483,31.078L266,761.129" transform="translate(571.864 -434.762)"/><path class="b" d="M428.072,818.23l-37.145-49.5L308.931,570l82,67.666,60.6-9.469,8.671-40.783" transform="translate(510.236 -423.727)"/><path class="b" d="M429.314,750.13l-7.051,84.617L466.221,803.9l38.725-61.663,56.017-43.061,43.091,69.626L688,689.644,604.053,636.8l58.92,179.269L708.1,778.556l59.319-117.071,15.738-80.136L802.012,742.24l62.7-63.126,82.4,63.126V636.8L796.294,824.472l85.205-8.4L860.17,869.91" transform="translate(-127.942 -490.554)"/><path class="b" d="M535.947,782.158,421.935,728.964l79.822-29.255,96.979,18.332,82.839-41.375" transform="translate(138.029 -530.024)"/><path class="b" d="M565.706,819.739,484,726" transform="translate(171.059 -633.452)"/><path class="b" d="M847.361,759.172,816.59,814.423l-68.029-42.886L718.879,878.685l-76.318-69.5-48.508-53.5-11.109,45.623,59.616-45.623,46.544,39.763" transform="translate(-242.66 -732.019)"/><path class="b" d="M763.509,808.036l-59.315,21.245L657.939,845.29" transform="translate(-258.903 -768.498)"/><path class="b" d="M751.191,847.653H721.553l-27.32,23.915" transform="translate(-295.029 -847.653)"/><path class="b" d="M719.313,872.447l-13.134-29.776" transform="translate(-279.094 -841.883)"/><path class="b" d="M772.876,847.109l32.327,8.964" transform="translate(-454.007 -831.432)"/><path class="b" d="M708.345,747.915l19.123,45.611,42.29,32.026,35.629,10.554" transform="translate(-368.06 -679.069)"/><path class="b" d="M721.884,708.992l-42.517,62.346" transform="translate(-245.88 -562.35)"/><path class="b" d="M892.966,723.8l19.9,66.891-64.007,42.035L789.8,776.776,848.855,756.7" transform="translate(-584.25 -643.51)"/><path class="b" d="M966.275,551.483l-27.842,74.63-93.671-59.268,22.759,118.712-29.441,55.4,15.971,40.748" transform="translate(-702.107 -362.488)"/><path class="b" d="M956.034,637.778l-102.09-47.547-72.893,58.4L821.3,693.383" transform="translate(-615.749 -325.882)"/><path class="b" d="M888.288,605.872,831.54,573.966l-58.664,45.675" transform="translate(-537.092 -230.432)"/><path class="b" d="M858.2,676.9l61.1-22.949L1044.772,644" transform="translate(-807.458 -381.167)"/><path class="b" d="M952.115,741.422l111.963,37.043L1036.351,705.6l23.531-43.909" transform="translate(-952.115 -506.347)"/><path class="b" d="M869.165,677.034l-31.131,68.015L989.367,661.5" transform="translate(-725.138 -472.674)"/><path class="b" d="M536.954,472.551l-17.361,45.9,12.726,69.023,43.892,48.741-25.557,33.715L525.815,694.2" transform="translate(113.046 -169.627)"/><path class="b" d="M573.789,501.086l2.972-26.168-38.185-4.794" transform="translate(87.16 26.725)"/><path class="b" d="M641.015,528.594l-25.438,15.165-49.62-25.792-13.076,31.223,7.968,29.609" transform="translate(3.813 -114.847)"/><path class="b" d="M618.848,540.234l20.229,22.9" transform="translate(-82.297 -128.897)"/><path class="b" d="M573.406,618.442,562.6,568.11l73.246-4.566" transform="translate(-3.993 -215.321)"/><path class="b" d="M690.413,539.928l-54.955,65.552L645.6,648.747l44.811-4.228" transform="translate(-155.802 -214.105)"/><path class="c" d="M676.839,685.071l2.919-49.8L745,685.071,742.14,571.235" transform="translate(-265.625 -292.215)"/></g><circle class="d" cx="38.5" cy="38.5" r="38.5" transform="translate(788 221)"/><circle class="d" cx="38.5" cy="38.5" r="38.5" transform="translate(788 221)"/><circle class="e" cx="38.5" cy="38.5" r="38.5" transform="translate(530 169)"/><circle class="f" cx="38.5" cy="38.5" r="38.5" transform="translate(235 157)"/><circle class="d" cx="29.5" cy="29.5" r="29.5" transform="translate(797 230)"/><circle class="e" cx="29.5" cy="29.5" r="29.5" transform="translate(539 178)"/><circle class="f" cx="29.5" cy="29.5" r="29.5" transform="translate(244 166)"/><g class="g" transform="translate(325.78 154.174)"><path class="x" d="M0,41.081Z"/><path class="y" d="M 1.000000520434696e-05 32.78220367431641 L 1.000000520434696e-05 49.38024139404297 L 1.000000520434696e-05 32.78220367431641 Z"/></g><circle class="h" cx="20" cy="20" r="20" transform="translate(806 239)"/><circle class="i" cx="20" cy="20" r="20" transform="translate(549 187)"/><circle class="j" cx="20" cy="20" r="20" transform="translate(254 175)"/><ellipse class="h" cx="9.5" cy="9" rx="9.5" ry="9" transform="translate(817 145)"/><ellipse class="h" cx="9.5" cy="9" rx="9.5" ry="9" transform="translate(667 333)"/><ellipse class="h" cx="9" cy="9.5" rx="9" ry="9.5" transform="translate(358 111)"/><circle class="h" cx="9" cy="9" r="9" transform="translate(900 213)"/><path class="j" d="M9.343,18.686a9.343,9.343,0,1,1,9.343-9.343A9.343,9.343,0,0,1,9.343,18.686Z" transform="translate(235.019 261.992)"/><ellipse class="j" cx="9" cy="9.5" rx="9" ry="9.5" transform="translate(645 415)"/><ellipse class="j" cx="9.5" cy="9" rx="9.5" ry="9" transform="translate(164 321)"/><ellipse class="j" cx="9" cy="9.5" rx="9" ry="9.5" transform="translate(142 202)"/><ellipse class="j" cx="9.5" cy="9" rx="9.5" ry="9" transform="translate(203 133)"/><circle class="j" cx="9.5" cy="9.5" r="9.5" transform="translate(336 311)"/><ellipse class="i" cx="9.5" cy="9" rx="9.5" ry="9" transform="translate(475 277)"/><circle class="i" cx="9.5" cy="9.5" r="9.5" transform="translate(534 323)"/><circle class="i" cx="9.5" cy="9.5" r="9.5" transform="translate(431 206)"/><ellipse class="i" cx="9.5" cy="9" rx="9.5" ry="9" transform="translate(475 145)"/><ellipse class="i" cx="9" cy="9.5" rx="9" ry="9.5" transform="translate(505 39)"/><circle class="i" cx="9.5" cy="9.5" r="9.5" transform="translate(398 75)"/><ellipse class="i" cx="9" cy="9.5" rx="9" ry="9.5" transform="translate(673 250)"/><ellipse class="i" cx="9.5" cy="9" rx="9.5" ry="9" transform="translate(654 90)"/><ellipse class="i" cx="9" cy="9.5" rx="9" ry="9.5" transform="translate(736 187)"/><ellipse class="j" cx="9.5" cy="9" rx="9.5" ry="9" transform="translate(376 253)"/><circle class="h" cx="9.5" cy="9.5" r="9.5" transform="translate(950 263)"/><ellipse class="h" cx="9.5" cy="9" rx="9.5" ry="9" transform="translate(837 325)"/><ellipse class="h" cx="7" cy="6.5" rx="7" ry="6.5" transform="translate(902 346)"/><circle class="j" cx="6.5" cy="6.5" r="6.5" transform="translate(114 274)"/><circle class="j" cx="6.5" cy="6.5" r="6.5" transform="translate(267 114)"/><ellipse class="i" cx="7" cy="6.5" rx="7" ry="6.5" transform="translate(415 345)"/><circle class="i" cx="6.5" cy="6.5" r="6.5" transform="translate(582 289)"/><ellipse class="i" cx="6.5" cy="7" rx="6.5" ry="7" transform="translate(641 171)"/><ellipse class="i" cx="7" cy="6.5" rx="7" ry="6.5" transform="translate(575 83)"/><ellipse class="i" cx="7" cy="6.5" rx="7" ry="6.5" transform="translate(447 63)"/><circle class="i" cx="6.5" cy="6.5" r="6.5" transform="translate(481 393)"/><ellipse class="j" cx="6.5" cy="7" rx="6.5" ry="7" transform="translate(330 147)"/><ellipse class="j" cx="7" cy="6.5" rx="7" ry="6.5" transform="translate(296 345)"/><ellipse class="j" cx="6.5" cy="7" rx="6.5" ry="7" transform="translate(561 355)"/><ellipse class="j" cx="7" cy="6.5" rx="7" ry="6.5" transform="translate(691 468)"/><circle class="j" cx="6.5" cy="6.5" r="6.5" transform="translate(621 429)"/><circle class="j" cx="6.5" cy="6.5" r="6.5" transform="translate(633 349)"/><ellipse class="j" cx="7" cy="6.5" rx="7" ry="6.5" transform="translate(53 297)"/><ellipse class="j" cx="6.5" cy="7" rx="6.5" ry="7" transform="translate(0 239)"/><circle class="j" cx="6.5" cy="6.5" r="6.5" transform="translate(87 201)"/><ellipse class="j" cx="6.5" cy="7" rx="6.5" ry="7" transform="translate(138 379)"/><ellipse class="h" cx="7" cy="6.5" rx="7" ry="6.5" transform="translate(962 206)"/><ellipse class="h" cx="6.5" cy="7" rx="6.5" ry="7" transform="translate(398 24)"/><circle class="h" cx="7" cy="7" r="7" transform="translate(403 147)"/><circle class="h" cx="6.5" cy="6.5" r="6.5" transform="translate(342 70)"/><ellipse class="h" cx="7" cy="6.5" rx="7" ry="6.5" transform="translate(352 26)"/><circle class="h" cx="7" cy="7" r="7" transform="translate(427)"/><ellipse class="h" cx="6.5" cy="7" rx="6.5" ry="7" transform="translate(1016 235)"/><circle class="h" cx="4" cy="4" r="4" transform="translate(892 394)"/><circle class="h" cx="4" cy="4" r="4" transform="translate(758 329)"/><circle class="h" cx="4" cy="4" r="4" transform="translate(737 382)"/><circle class="h" cx="4" cy="4" r="4" transform="translate(461 4)"/><circle class="h" cx="4" cy="4" r="4" transform="translate(443 34)"/><circle class="h" cx="4" cy="4" r="4" transform="translate(441 161)"/><circle class="h" cx="4" cy="4" r="4" transform="translate(942 398)"/><circle class="h" cx="4" cy="4" r="4" transform="translate(974 167)"/><circle class="h" cx="4" cy="4" r="4" transform="translate(1032 190)"/><circle class="i" cx="4" cy="4" r="4" transform="translate(607 31)"/><ellipse class="j" cx="4" cy="4.5" rx="4" ry="4.5" transform="translate(156 423)"/><circle class="j" cx="4" cy="4" r="4" transform="translate(206 371)"/><circle class="j" cx="4" cy="4" r="4" transform="translate(312 86)"/><circle class="j" cx="4" cy="4" r="4" transform="translate(574 407)"/><circle class="j" cx="4" cy="4" r="4" transform="translate(561 438)"/><circle class="j" cx="4" cy="4" r="4" transform="translate(569 466)"/><circle class="j" cx="4" cy="4" r="4" transform="translate(654 307)"/><circle class="j" cx="4" cy="4" r="4" transform="translate(667 505)"/><circle class="j" cx="4" cy="4" r="4" transform="translate(665 532)"/><circle class="j" cx="4" cy="4" r="4" transform="translate(642 528)"/><circle class="j" cx="4" cy="4" r="4" transform="translate(631 501)"/><circle class="j" cx="4" cy="4" r="4" transform="translate(541 415)"/><circle class="j" cx="4" cy="4" r="4" transform="translate(206 371)"/><ellipse class="j" cx="4" cy="4.5" rx="4" ry="4.5" transform="translate(156 423)"/><circle class="j" cx="4" cy="4" r="4" transform="translate(112 158)"/><circle class="j" cx="4" cy="4" r="4" transform="translate(240 393)"/><circle class="j" cx="4" cy="4" r="4" transform="translate(355 378)"/><circle class="i" cx="4" cy="4" r="4" transform="translate(415 395)"/><circle class="i" cx="4" cy="4" r="4" transform="translate(539 434)"/><circle class="i" cx="4" cy="4" r="4" transform="translate(494 438)"/><circle class="j" cx="4" cy="4" r="4" transform="translate(306 263)"/><circle class="h" cx="4" cy="4" r="4" transform="translate(1068 209)"/></g><ellipse class="m" cx="869" cy="394" rx="869" ry="394" transform="translate(1367 -27)"/></g><g class="l" transform="translate(-2728 233)"><ellipse class="m" cx="544" cy="394" rx="544" ry="394" transform="translate(2122 -27)"/><circle class="d" cx="38.5" cy="38.5" r="38.5" transform="translate(2587 316)"/><circle class="d" cx="38.5" cy="38.5" r="38.5" transform="translate(2587 316)"/><circle class="d" cx="29.5" cy="29.5" r="29.5" transform="translate(2596 325)"/><circle class="h" cx="20" cy="20" r="20" transform="translate(2605 334)"/><ellipse class="h" cx="9.5" cy="9" rx="9.5" ry="9" transform="translate(2616 240)"/><circle class="h" cx="9" cy="9" r="9" transform="translate(2699 308)"/><circle class="h" cx="9.5" cy="9.5" r="9.5" transform="translate(2749 358)"/><ellipse class="h" cx="9.5" cy="9" rx="9.5" ry="9" transform="translate(2636 420)"/><ellipse class="h" cx="7" cy="6.5" rx="7" ry="6.5" transform="translate(2701 441)"/><ellipse class="h" cx="7" cy="6.5" rx="7" ry="6.5" transform="translate(2761 301)"/><ellipse class="h" cx="6.5" cy="7" rx="6.5" ry="7" transform="translate(2815 330)"/><circle class="h" cx="4" cy="4" r="4" transform="translate(2691 489)"/><circle class="h" cx="4" cy="4" r="4" transform="translate(2557 424)"/><circle class="h" cx="4" cy="4" r="4" transform="translate(2536 477)"/><circle class="h" cx="4" cy="4" r="4" transform="translate(2741 493)"/><circle class="h" cx="4" cy="4" r="4" transform="translate(2773 262)"/><circle class="h" cx="4" cy="4" r="4" transform="translate(2831 285)"/><circle class="h" cx="4" cy="4" r="4" transform="translate(2867 304)"/></g><path class="n" d="M467.3-188.438,502.25,362.088" transform="translate(347.354 378.565)"/><path class="o" d="M982.556-139.211,558.429,351.213" transform="translate(-2.943 372.922)"/><path class="o" d="M1094.089-140.056,558.429,285.19" transform="translate(5.024 438.946)"/><path class="p" d="M405.878,536.967l-76.69,220.168L601.682,413.564" transform="translate(-29.802 -79.136)"/><path class="o" d="M227.568,270.649l208.177,326.9" transform="translate(119.741 126.586)"/><g class="q" transform="translate(194.798 70)"><g class="ab" transform="matrix(1, 0, 0, 1, -800.8, 84.67)"><g class="r" transform="translate(1350.8)"><path class="x" d="M 63.7515754699707 252.8521118164062 L 79.45465850830078 209.1169128417969 L 79.93503570556641 207.7789764404297 L 78.51347351074219 207.7789764404297 L 11.24478530883789 207.7789764404297 C 5.595785140991211 207.7789764404297 1.000035166740417 202.4397277832031 1.000035166740417 195.8769226074219 L 1.000035166740417 12.90204334259033 C 1.000035166740417 6.339231014251709 5.595785140991211 0.9999812245368958 11.24478530883789 0.9999812245368958 L 487.6117248535156 0.9999812245368958 C 493.2607116699219 0.9999812245368958 497.8564758300781 6.339231014251709 497.8564758300781 12.90204334259033 L 497.8564758300781 195.8769226074219 C 497.8564758300781 202.4397277832031 493.2607116699219 207.7789764404297 487.6117248535156 207.7789764404297 L 176.3594055175781 207.7789764404297 L 176.1664123535156 207.7789764404297 L 175.9872894287109 207.8507995605469 L 63.7515754699707 252.8521118164062 Z"/><path class="z" d="M 11.24472045898438 1.999984741210938 C 6.14715576171875 1.999984741210938 1.999969482421875 6.890609741210938 1.999969482421875 12.90203857421875 L 1.999969482421875 195.8769226074219 C 1.999969482421875 201.8883514404297 6.14715576171875 206.7789764404297 11.24472045898438 206.7789764404297 L 78.51345825195312 206.7789764404297 L 81.35659790039062 206.7789764404297 L 80.39584350585938 209.4548645019531 L 65.44467163085938 251.0959014892578 L 175.6151123046875 206.9226684570312 L 175.9734191894531 206.7789764404297 L 176.3594055175781 206.7789764404297 L 487.6117248535156 206.7789764404297 C 492.7092895507812 206.7789764404297 496.8564147949219 201.8883514404297 496.8564147949219 195.8769226074219 L 496.8564147949219 12.90203857421875 C 496.8564147949219 6.890609741210938 492.7092895507812 1.999984741210938 487.6117248535156 1.999984741210938 L 11.24472045898438 1.999984741210938 M 11.24472045898438 -1.52587890625e-05 L 487.6117248535156 -1.52587890625e-05 C 493.822021484375 -1.52587890625e-05 498.8564147949219 5.776473999023438 498.8564147949219 12.90203857421875 L 498.8564147949219 195.8769226074219 C 498.8564147949219 203.0025482177734 493.822021484375 208.7789764404297 487.6117248535156 208.7789764404297 L 176.3594055175781 208.7789764404297 L 62.0584716796875 254.6083526611328 L 78.51345825195312 208.7789764404297 L 11.24472045898438 208.7789764404297 C 5.03448486328125 208.7789764404297 -3.0517578125e-05 203.0025482177734 -3.0517578125e-05 195.8769226074219 L -3.0517578125e-05 12.90203857421875 C -3.0517578125e-05 5.776473999023438 5.03448486328125 -1.52587890625e-05 11.24472045898438 -1.52587890625e-05 Z"/></g></g><g transform="translate(554 98.033)"><line class="s" x1="451.738" transform="translate(19.699 26.358)"/><line class="t" x1="189.001" transform="translate(282.436 47.653)"/><line class="s" x1="243.685" transform="translate(19.699 48.579)"/><line class="s" x1="293.236" transform="translate(178.202 67.456)"/><line class="t" x1="130.552" transform="translate(19.699 67.456)"/><line class="t" x1="84.257" transform="translate(387.181 88.918)"/><line class="s" x1="346.288" transform="translate(19.699 88.918)"/><line class="t" x1="451.738" transform="translate(19.699 108.665)"/><line class="s" x1="451.738" transform="translate(19.699 152.28)"/><line class="s" x1="183.054" transform="translate(288.384 131.298)"/><line class="t" x1="243.991" y2="0.314" transform="translate(19.699 130.985)"/><line class="u" x1="345.801" y1="0.444" transform="translate(19.699 88.023)"/><line class="u" x1="183.248" y1="2.334" transform="translate(288.252 129.133)"/><line class="v" x1="452.185" y2="0.926" transform="translate(19.252 25.432)"/><path class="v" d="M243.948,0,0,1.852" transform="translate(19.436 46.727)"/><line class="u" x1="452.185" y1="0.926" transform="translate(19.252 151.355)"/><line class="u" x1="293.319" y1="1.074" transform="translate(178.181 66.393)"/></g></g><g class="q" transform="translate(66.798 -15)"><g class="aa" transform="matrix(1, 0, 0, 1, -672.8, 169.67)"><g class="r" transform="translate(744.8 131)"><path class="x" d="M 435.1048889160156 252.8521118164062 L 322.8691711425781 207.8507995605469 L 322.6900634765625 207.7789764404297 L 322.4970397949219 207.7789764404297 L 11.24473762512207 207.7789764404297 C 5.595737934112549 207.7789764404297 0.9999879002571106 202.4397277832031 0.9999879002571106 195.8769226074219 L 0.9999879002571106 12.90204334259033 C 0.9999879002571106 6.339231014251709 5.595737934112549 0.9999812245368958 11.24473762512207 0.9999812245368958 L 487.6117248535156 0.9999812245368958 C 493.2607421875 0.9999812245368958 497.8564758300781 6.339231014251709 497.8564758300781 12.90204334259033 L 497.8564758300781 195.8769226074219 C 497.8564758300781 202.4397277832031 493.2607421875 207.7789764404297 487.6117248535156 207.7789764404297 L 420.3429870605469 207.7789764404297 L 418.9214172363281 207.7789764404297 L 419.4017944335938 209.1169128417969 L 435.1048889160156 252.8521118164062 Z"/><path class="z" d="M 11.2447509765625 1.999984741210938 C 6.147186279296875 1.999984741210938 2 6.890609741210938 2 12.90203857421875 L 2 195.8769226074219 C 2 201.8883514404297 6.147186279296875 206.7789764404297 11.2447509765625 206.7789764404297 L 322.4970703125 206.7789764404297 L 322.883056640625 206.7789764404297 L 323.2413635253906 206.9226684570312 L 433.4118041992188 251.0959014892578 L 418.4606018066406 209.4548645019531 L 417.4998779296875 206.7789764404297 L 420.3429870605469 206.7789764404297 L 487.6117248535156 206.7789764404297 C 492.7092895507812 206.7789764404297 496.8564758300781 201.8883514404297 496.8564758300781 195.8769226074219 L 496.8564758300781 12.90203857421875 C 496.8564758300781 6.890609741210938 492.7092895507812 1.999984741210938 487.6117248535156 1.999984741210938 L 11.2447509765625 1.999984741210938 M 11.2447509765625 -1.52587890625e-05 L 487.6117248535156 -1.52587890625e-05 C 493.8219909667969 -1.52587890625e-05 498.8564758300781 5.776473999023438 498.8564758300781 12.90203857421875 L 498.8564758300781 195.8769226074219 C 498.8564758300781 203.0025482177734 493.8219909667969 208.7789764404297 487.6117248535156 208.7789764404297 L 420.3429870605469 208.7789764404297 L 436.7979736328125 254.6083526611328 L 322.4970703125 208.7789764404297 L 11.2447509765625 208.7789764404297 C 5.034423828125 208.7789764404297 0 203.0025482177734 0 195.8769226074219 L 0 12.90203857421875 C 0 5.776473999023438 5.034423828125 -1.52587890625e-05 11.2447509765625 -1.52587890625e-05 Z"/></g></g><g transform="translate(75 315.352)"><line class="s" x1="451.738" transform="translate(19.699 111.541)"/><line class="t" x1="189.001" transform="translate(282.436 130.985)"/><line class="s" x1="243.685" transform="translate(19.699 131.911)"/><line class="s" x1="311.276" transform="translate(160.437 90.245)"/><line class="s" x1="293.236" transform="translate(178.202 152.639)"/><line class="t" x1="130.552" transform="translate(19.699 152.639)"/><line class="s" x1="84.257" transform="translate(387.181 27.809)"/><line class="t" x1="346.288" transform="translate(19.699 27.809)"/><line class="s" x1="451.738" transform="translate(19.699 48.481)"/><line class="t" x1="112.207" transform="translate(19.699 90.245)"/><line class="t" x1="183.054" transform="translate(288.384 68.337)"/><line class="s" x1="243.991" y2="0.314" transform="translate(19.699 68.023)"/><line class="w" x1="294.61" y2="0.926" transform="translate(177.103 152.28)"/><line class="w" x1="452.461" transform="translate(19.252 48.579)"/><line class="u" x1="452.185" y2="0.926" transform="translate(19.252 110.615)"/><line class="u" x1="243.905" transform="translate(19.48 131.911)"/><line class="u" x1="311.496" transform="translate(160.217 90.245)"/><line class="w" x1="84.257" transform="translate(387.181 27.283)"/><line class="w" x1="243.788" transform="translate(19.597 69.875)"/></g></g></g></svg>